<?xml version="1.0" encoding="utf-8"?>
<!-- Generator: Adobe Illustrator 18.0.0, SVG Export Plug-In . SVG Version: 6.00 Build 0)  -->
<!DOCTYPE svg PUBLIC "-//W3C//DTD SVG 1.1//EN" "http://www.w3.org/Graphics/SVG/1.1/DTD/svg11.dtd">
<svg version="1.1" id="Capa_1" xmlns="http://www.w3.org/2000/svg" xmlns:xlink="http://www.w3.org/1999/xlink" x="0px" y="0px"
	 viewBox="0 0 438.5 438.5" enable-background="new 0 0 438.5 438.5" xml:space="preserve">
<g>
	<g>
		<path d="M409.1,109.2c-19.6-33.6-46.2-60.2-79.8-79.8C295.7,9.8,259.1,0,219.3,0c-39.8,0-76.5,9.8-110.1,29.4
			C75.6,49,49,75.6,29.4,109.2C9.8,142.8,0,179.5,0,219.3c0,39.8,9.8,76.5,29.4,110.1c19.6,33.6,46.2,60.2,79.8,79.8
			c33.6,19.6,70.3,29.4,110.1,29.4s76.5-9.8,110.1-29.4c33.6-19.6,60.2-46.2,79.8-79.8c19.6-33.6,29.4-70.3,29.4-110.1
			C438.5,179.5,428.7,142.8,409.1,109.2z M353.7,297.2c-13.9,23.8-32.7,42.6-56.5,56.5c-23.8,13.9-49.8,20.8-77.9,20.8
			c-28.2,0-54.1-6.9-77.9-20.8c-23.8-13.9-42.6-32.7-56.5-56.5C70.9,273.4,64,247.4,64,219.3c0-28.2,6.9-54.2,20.8-77.9
			c13.9-23.8,32.7-42.6,56.5-56.5C165.1,70.9,191.1,64,219.3,64c28.2,0,54.2,6.9,77.9,20.8c23.8,13.9,42.6,32.7,56.5,56.5
			c13.9,23.8,20.8,49.8,20.8,77.9C374.6,247.4,367.6,273.4,353.7,297.2z"/>
		<path d="M246.7,109.6h-18.3c-2.7,0-4.9,0.9-6.6,2.6c-1.7,1.7-2.6,3.9-2.6,6.6v100.5h-64c-2.7,0-4.9,0.9-6.6,2.6
			c-1.7,1.7-2.6,3.9-2.6,6.6v18.3c0,2.7,0.9,4.9,2.6,6.6c1.7,1.7,3.9,2.6,6.6,2.6h91.4c2.7,0,4.9-0.9,6.6-2.6
			c1.7-1.7,2.6-3.9,2.6-6.6V118.8c0-2.7-0.9-4.8-2.6-6.6C251.5,110.5,249.3,109.6,246.7,109.6z"/>
	</g>
</g>
</svg>
